<?xml version="1.0" encoding="UTF-8"?>
<svg id="Layer_1" data-name="Layer 1" xmlns="http://www.w3.org/2000/svg" width="153.37" height="153.37" viewBox="0 0 153.37 153.37">
  <circle cx="76.68" cy="76.68" r="76.68" style="fill: #20332f;"/>
  <path d="M32.62,80.01c20.05-6.33,40.1-12.66,60.14-19,.27,2.31,.54,4.62,.8,6.92-4.98,7.19-5.25,9.87-10.23,17.06-18.83,6.95-33.51,4.28-50.72-4.99h0Z" style="fill: none; stroke: #fff; stroke-miterlimit: 10;"/>
  <path d="M45.04,92.85c6.83-1.83,13.85,2.23,15.68,9.06,1.83,6.83-2.22,13.85-9.05,15.68-6.83,1.83-13.86-2.22-15.69-9.05-1.83-6.83,2.22-13.85,9.06-15.69h0Z" style="fill: none; stroke: #fff; stroke-miterlimit: 10;"/>
  <path d="M83.34,85c7.71-1.97,14.27,8.39,16.7,5.79,4.83-5.15-3.87-11.72-6.47-22.86-23.33,10.3-41.83,22.07-45.21,37.28m45.21-37.28l11.56-20.16,18.22-8.7" style="fill: none; stroke: #fff; stroke-miterlimit: 10;"/>
</svg>