<?xml version="1.0" encoding="UTF-8"?>
<svg id="Layer_1" data-name="Layer 1" xmlns="http://www.w3.org/2000/svg" width="625.78" height="625.78" viewBox="0 0 625.78 625.78">
  <g style="opacity: .1;">
    <circle cx="312.89" cy="312.89" r="312.39" style="fill: none; stroke: #f2efe2; stroke-miterlimit: 10;"/>
    <path d="M269.01,366.47l39.18,39.19c-31.18,31.18-39.79,39.79-70.98,70.97-14.12,14.12-47.81,11.11-67.85-8.92-20.03-20.03-23.04-53.73-8.92-67.84,31.19-31.19,39.79-39.8,70.97-70.98l37.59,37.58h0Z" style="fill: none; stroke: #f2efe2; stroke-miterlimit: 10;"/>
    <path d="M269,366.47l11.39,11.39-15.04,14.51c-5.8,5.59-26.23,16.99-31.93,11.28-5.69-5.7,5.59-26.23,11.3-31.92l14.5-15.04,9.78,9.78h0Zm-7.11-7.11l125.06-127.63,18.38,18.4-127.63,125.06-8.71-8.71-7.11-7.11h0Zm143.45-109.24c22.6,13.95,44.86-3.04,57.31-14.2m13.99-13.99l-15.38-15.37-15.37-15.38-15.38-15.37-15.38-15.38-13.99,13.99,15.38,15.38,15.37,15.37,15.37,15.38,15.37,15.37,13.99-13.99h0Z" style="fill: none; stroke: #f2efe2; stroke-miterlimit: 10;"/>
  </g>
</svg>